<?xml version="1.0" encoding="UTF-8" standalone="no"?>
<svg
   width="430"
   height="538.16418"
   version="1.1"
   id="svg147"
   sodipodi:docname="Coat_of_Arms_of_Vorsza,_Belarus.svg"
   xml:space="preserve"
   inkscape:version="1.2.2 (732a01da63, 2022-12-09)"
   xmlns:inkscape="http://www.inkscape.org/namespaces/inkscape"
   xmlns:sodipodi="http://sodipodi.sourceforge.net/DTD/sodipodi-0.dtd"
   xmlns="http://www.w3.org/2000/svg"
   xmlns:svg="http://www.w3.org/2000/svg"><sodipodi:namedview
     id="namedview149"
     pagecolor="#ffffff"
     bordercolor="#000000"
     borderopacity="0.25"
     inkscape:showpageshadow="2"
     inkscape:pageopacity="0.0"
     inkscape:pagecheckerboard="0"
     inkscape:deskcolor="#d1d1d1"
     showgrid="false"
     inkscape:zoom="1.740678"
     inkscape:cx="178.09153"
     inkscape:cy="270.29698"
     inkscape:window-width="2560"
     inkscape:window-height="1362"
     inkscape:window-x="-8"
     inkscape:window-y="-8"
     inkscape:window-maximized="1"
     inkscape:current-layer="svg147" /><defs
     id="defs137" /><g
     id="g2844"
     transform="translate(-35,-25.25)"><path
       d="m 36,75 v 111 c 40,26 40,104 0,128 v 103 c 0,88 165,117 165,117 24,3 39,18 49,28 10,-10 24,-25 50,-28 -1,0 164,-29 164,-117 V 314 C 424,290 424,212 464,186 V 75 C 397,10 103,10 36,75 Z"
       style="fill:#4a82be;fill-opacity:1;stroke:#000000;stroke-width:2"
       id="path141" /><path
       d="m 143,160 c 11,42 11,84 0,126 21,-21 56,-32 84,-42 -10,28 -21,63 -42,84 42,-11 84,-11 126,0 -21,-21 -31,-56 -42,-84 28,10 63,21 84,42 -10,-42 -10,-84 0,-126 -21,21 -56,31 -84,42 11,-28 21,-63 42,-84 -42,10 -84,10 -126,0 21,21 32,56 42,84 -28,-11 -63,-21 -84,-42 z"
       style="fill:#ffffff;stroke:#4d4d4d;stroke-width:2"
       id="path143" /><path
       d="m 113,225 c -11,16 -14,43 -14,67 0,86 66,149 150,149 78,0 151,-65 150,-149 2,-24 -7,-50 -14,-67 0,195 -272,195 -272,0 z"
       style="fill:#fcf088;fill-opacity:1;stroke:#aa8800;stroke-width:2"
       id="path145" /></g></svg>
